<svg width="1168" height="565" viewBox="0 0 1168 565" fill="none" xmlns="http://www.w3.org/2000/svg">
<mask id="mask0_196_585" style="mask-type:alpha" maskUnits="userSpaceOnUse" x="0" y="0" width="1168" height="565">
<rect width="1168" height="565" rx="48" fill="#CC3544"/>
</mask>
<g mask="url(#mask0_196_585)">
<g opacity="0.05">
<path d="M978.873 469.91C963.725 435.265 942.697 404.665 916.241 380.311C857.923 326.564 786.187 302.813 727.94 248.825C676.497 201.143 635.271 135.808 595.847 73.037C548.458 -2.43854 480.87 -59.6563 402.639 -34.3972C326.896 -9.95292 282.612 74.0932 269.906 167.917C258.242 254.015 274.244 336.13 312.957 407.833C352.215 480.533 406.93 538.143 452.351 604.172C497.868 670.323 539.496 741.694 567.612 822.481C603.978 927.018 638.471 1055.03 729.813 1099.97C775.305 1122.33 826.725 1113.55 864.774 1074.35C917.379 1020.18 938.928 938.365 961.354 860.264C996.559 737.741 1032.31 592.101 978.873 469.91Z" stroke="white" stroke-width="2" stroke-miterlimit="10"/>
<path d="M487.175 147.186C427.695 163.089 390.76 224.774 381.515 297.593C379.263 315.157 378.717 332.721 379.666 350.134C382.131 395.854 394.79 441.302 416.861 483.099C444.598 535.669 483.263 578.009 515.789 625.902C539.732 661.15 562.372 698.208 581.148 738.074C587.904 752.408 594.162 767.105 599.805 782.194C627.849 856.704 654.946 945.971 720.068 978.111C755.391 995.614 794.909 990.031 825.206 960.215C865.413 920.621 882.221 860.838 897.819 802.927C901.233 790.191 904.552 777.094 907.658 763.786C926.576 682.757 937.267 592.736 902.442 514.695C891.561 490.1 876.697 468.221 858.206 450.506C817.383 411.425 767.386 392.443 726.303 353.574C689.937 319.111 660.517 272.817 631.832 229.029C594.968 172.716 544.047 132.006 487.175 147.186Z" stroke="white" stroke-width="2" stroke-miterlimit="10"/>
<path d="M571.691 328.826C528.308 335.828 498.888 375.542 493.127 427.328C491.752 439.52 491.752 451.953 492.937 464.537C495.782 494.746 505.051 527.429 520.721 558.422C537.055 590.773 559.577 617.933 579.182 647.719C593.572 669.568 607.487 692.171 619.601 715.891C623.963 724.462 628.088 733.153 631.953 741.995C651.51 786.568 671.377 836.966 710.303 856.31C735.455 868.925 763.026 866.51 785.618 846.11C813.402 821.002 825.493 783.339 834.264 745.647C836.208 737.257 837.915 728.657 839.432 719.875C848.417 667.998 849.507 610.539 826.038 559.478C819.353 544.962 810.723 531.744 800.174 520.699C776.823 496.255 748.612 482.101 724.692 458.29C703.404 437.075 685.672 409.945 667.844 385.018C641.317 347.959 607.037 323.123 571.691 328.826Z" stroke="white" stroke-width="2" stroke-miterlimit="10"/>
<path d="M656.228 510.438C622.731 505.308 597.697 536.301 606.207 578.913C609.147 593.639 615.619 613.255 624.604 633.716C633.588 654.177 645.086 675.513 658.077 693.65C671.068 711.787 685.577 726.755 700.583 734.481C715.589 742.207 731.093 742.72 746.076 731.976C764.757 718.577 771.892 698.569 771.229 675.935C770.565 653.302 762.125 628.073 749.632 604.262C737.139 580.452 720.615 558.029 703.807 541.039C686.976 524.079 669.859 512.521 656.228 510.438Z" stroke="white" stroke-width="2" stroke-miterlimit="10"/>
<path d="M175.078 424.431C217.678 470.272 261.939 513.578 307.692 554.167C353.446 594.757 400.669 628.888 439.738 680.342C558.982 837.329 624.009 1166.93 449.789 1308.59C340.218 1397.68 206.062 1320.45 90.6825 1380.02C40.9936 1405.67 -11.9905 1453.99 -65.8044 1410.71C-86.4765 1394.09 -99.3966 1365.57 -108.595 1336.72C-151.717 1201.58 -135.525 1038.95 -140.48 895.814C-145.624 747.368 -150.792 593.097 -117.034 449.026C-104.873 397.09 -81.8774 347.386 -46.2228 317.782C38.2673 247.587 104.551 347.447 164.268 412.692C167.847 416.615 171.451 420.538 175.078 424.431Z" stroke="white" stroke-width="2" stroke-miterlimit="10"/>
<path d="M22.1017 496.495C79.5664 452.525 125.936 516.171 166.475 561.619C168.893 564.335 171.334 567.051 173.752 569.767C204.12 603.959 233.564 638.604 265.426 670.11C297.335 701.736 331.472 727.84 360.916 763.964C370.374 775.522 379.525 788.106 388.107 801.626C460.862 916.152 504.316 1111.1 398.514 1215.34C319.832 1292.87 209.502 1226.26 132.29 1246.3C100.025 1254.66 67.0967 1280.4 33.386 1248.84C20.2526 1236.55 11.8605 1217 5.55455 1197.41C-4.7815 1165.36 -11.0637 1131.53 -15.6865 1097.34C-24.3394 1033.36 -25.7144 968.783 -33.3953 907.974C-45.0589 815.659 -54.3519 713.476 -36.6431 617.147C-34.9362 607.882 -32.9923 598.648 -30.7639 589.504C-21.5657 551.932 -4.18883 516.623 22.1017 496.495Z" stroke="white" stroke-width="2" stroke-miterlimit="10"/>
<path d="M642.835 -412.622C617.279 -288.831 542.058 -182.031 446.521 -142.105C416.58 -129.581 385.05 -123.364 355.891 -108.245C307.743 -83.2576 268.319 -33.1015 247.434 27.3453C228.492 82.0885 235.154 145.282 215.548 199.693C197.294 250.392 158.653 279.846 114.724 274.867C71.2229 269.917 32.7709 238.532 -5.63373 214.721C-41.5254 192.48 -79.2662 170.269 -104.537 129.287C-143.629 65.8527 -150.007 -18.284 -159.205 -95.2986C-173.926 -218.456 -182.129 -343.363 -182.129 -467.999C-182.129 -534.149 -178.194 -602.473 -154.487 -661.35C-120.468 -745.849 -51.0317 -797.725 18.95 -830.62C149.502 -892.002 300.584 -902.806 436.09 -861.643C510.458 -839.069 592.53 -788.4 625.079 -694.727C656.087 -605.551 662.369 -507.261 642.835 -412.622Z" stroke="white" stroke-width="2" stroke-miterlimit="10"/>
<path d="M516.334 -636C526.671 -609.413 534.185 -581.196 538.31 -552.195C544.664 -507.863 543.55 -462.355 535.086 -417.782C516.737 -321.151 459.937 -236.532 388.58 -200.529C366.154 -189.092 342.66 -182.06 320.803 -169.174C285.409 -148.291 255.041 -108.637 237.569 -61.438C222.089 -19.249 224.507 28.8549 208.292 70.0179C193.333 107.952 163.937 130.344 130.771 127.205C97.6059 124.157 68.2097 100.89 38.9796 81.6667C12.3334 64.1332 -15.664 46.2375 -34.5107 13.9771C-63.7172 -35.9979 -67.771 -100.066 -72.9627 -158.672C-81.2837 -252.315 -82.1608 -346.139 -79.1738 -439.782C-77.6329 -488.761 -73.9584 -539.43 -56.0837 -583.399C-30.3858 -646.592 20.2751 -686.669 71.1019 -713.377C109.412 -733.475 149.974 -747.9 191.199 -756.109C251.864 -768.21 314.497 -767.728 373.977 -753.302C405.625 -745.637 439.478 -731.091 467.523 -706.406C487.981 -688.45 505.026 -665.092 516.334 -636Z" stroke="white" stroke-width="2" stroke-miterlimit="10"/>
<path d="M800.462 -399.01C718.982 -389.866 647.673 -309.139 620.6 -212.841C587.411 -94.7233 646.962 24.6916 712.534 104.573C753.286 154.246 804.041 193.569 856.812 218.979C911.053 245.083 1015.84 311.897 1067.85 249.64C1117.96 189.615 1083.4 57.3746 1069.55 -14.1476C1038.4 -174.816 961.476 -414.099 803.022 -399.251C802.168 -399.191 801.315 -399.1 800.462 -399.01Z" stroke="white" stroke-width="2" stroke-miterlimit="10"/>
<path d="M711.158 -174.064C702.268 -149.589 700.656 -122.157 704.283 -96.2039C712.177 -39.7406 740.767 12.9806 771.823 53.4495C797.995 87.581 831.943 115.979 867.028 135.112C904.579 155.603 972.285 196.917 1007.51 149.869C1038.76 108.102 1018.63 24.1164 1009.31 -23.8669C988.643 -130.426 936.204 -282.463 835.001 -280.381C834.455 -280.381 833.887 -280.351 833.341 -280.351C795.719 -279.265 760.823 -256.118 735.955 -221.775C725.761 -207.682 717.511 -191.537 711.158 -174.064Z" stroke="white" stroke-width="2" stroke-miterlimit="10"/>
<path d="M801.717 -135.314C794.06 -123.514 792.401 -106.071 794.416 -90.3487C798.825 -56.1266 814.068 -24.1981 831.09 2.2983C842.848 20.5863 859.775 38.6328 877.199 51.2473C898.037 66.3364 928.974 82.542 947.133 50.1005C959.935 27.2556 953.795 -9.13926 949.03 -33.5836C938.812 -86.0634 910.696 -151.369 866.91 -161.509C866.649 -161.569 866.389 -161.629 866.152 -161.72C848.727 -166.035 831.587 -162.263 817.292 -152.093C811.461 -147.898 806.269 -142.315 801.717 -135.314Z" stroke="white" stroke-width="2" stroke-miterlimit="10"/>
<path d="M1212.89 112.992C1178.53 170.783 1153.81 241.189 1106.73 284.917C1083.95 306.072 1059.67 311.866 1033.88 323.726C1011.17 334.168 992.036 351.943 996.682 386.104C1003.53 436.442 1030.46 478.087 1041.25 527.036C1051.82 575.05 1052.87 626.081 1044.28 674.698C1037.88 710.882 1022.66 761.4 1045.38 793.449C1056.07 808.538 1073.33 812.642 1089.28 813.367C1144.9 815.902 1181.66 843.485 1227.8 881.056C1240.65 891.528 1255.7 901.487 1270.52 896.779" stroke="white" stroke-width="2" stroke-miterlimit="10"/>
<path d="M1215.39 199.453C1186.78 247.436 1164.42 303.688 1124.24 337.005C1102.57 354.991 1077.9 359.85 1055.26 373.762C1037.97 384.385 1022.87 398.297 1026.29 425.759C1031.29 466.53 1052.05 500.963 1061.06 540.859C1069.86 579.818 1071.64 620.921 1066.63 660.062C1062.87 689.637 1052.88 729.683 1070.93 755.546C1080.12 768.734 1094.18 773.441 1107.36 775.373C1153.35 782.163 1185.67 804.706 1226.13 833.104C1237.35 841.01 1250.29 848.404 1263.14 844.752" stroke="white" stroke-width="2" stroke-miterlimit="10"/>
<path d="M1217.89 285.914C1195.01 324.089 1174.7 365.765 1141.77 389.093C1121.05 403.76 1096.32 407.26 1076.64 423.798C1064.7 433.847 1053.72 444.651 1055.9 465.414C1059.08 496.588 1073.66 523.869 1080.91 554.651C1087.93 584.527 1090.49 615.791 1089.04 645.366C1087.93 668.332 1083.14 697.936 1096.53 717.582C1104.22 728.869 1115.12 734.211 1125.5 737.319C1161.87 748.394 1189.75 765.747 1224.55 785.061C1234.13 790.372 1244.94 795.261 1255.84 792.635" stroke="white" stroke-width="2" stroke-miterlimit="10"/>
<path d="M1220.4 372.344C1203.29 400.681 1184.63 427.087 1159.29 441.12C1139.35 452.165 1114.48 453.523 1098.01 473.772C1091.06 482.313 1084.56 490.944 1085.46 505.007C1086.84 526.614 1095.21 546.683 1100.71 568.411C1105.95 589.234 1109.41 610.721 1111.38 630.639C1112.99 647.086 1113.27 666.188 1122.07 679.618C1128.23 689.003 1135.98 694.948 1143.57 699.264C1170.31 714.594 1193.73 726.907 1222.87 737.016C1230.79 739.763 1239.51 742.117 1248.45 740.487" stroke="white" stroke-width="2" stroke-miterlimit="10"/>
<path d="M1222.91 458.805C1211.53 477.334 1194.32 487.474 1176.8 493.208C1157.39 499.575 1130.15 497.735 1119.38 523.808C1104.52 559.871 1130.88 614.011 1147.64 641.715C1172.87 683.421 1200.65 691.871 1241.12 688.43" stroke="white" stroke-width="2" stroke-miterlimit="10"/>
<path d="M1221.42 6.88582C1205.2 35.9172 1168.6 34.4083 1146.36 12.7404C1124.13 -8.92753 1113.06 -43.9945 1104.14 -77.7639C1084.63 -151.58 1070.45 -228.232 1042.48 -297.521C1014.51 -366.78 969.702 -429.792 910.72 -450.373C875.682 -462.596 837.87 -459.216 803.519 -474.244C768.338 -489.635 739.322 -523.737 720.214 -564.356C701.107 -604.976 691.292 -651.813 686.93 -698.83C683.611 -734.621 683.398 -771.469 691.245 -806.114C699.092 -840.758 715.733 -873.139 740.246 -891.246" stroke="white" stroke-width="2" stroke-miterlimit="10"/>
<path d="M946.604 356.394C946.522 356.408 946.446 356.416 946.364 356.43C932.612 358.794 923.3 339.177 914.13 329.459C901.518 316.12 887.104 305.679 872.145 297.289C854.674 287.512 836.349 280.48 818 273.901C805.649 269.495 788.082 260.744 789.078 240.494C789.694 228.091 810.745 237.899 816.885 241.067C860.624 263.641 902.513 292.159 949.998 302.842C972.374 307.871 967.35 352.047 946.886 356.35C946.796 356.369 946.694 356.379 946.604 356.394V356.394Z" stroke="white" stroke-width="2" stroke-miterlimit="10"/>
<path d="M300.059 448.515C298.376 446.403 296.764 444.29 295.294 442.238C271.374 408.921 256.107 371.078 240.84 330.82C238.825 325.479 236.668 320.077 233.397 315.852C227.66 308.458 219.244 308.307 211.61 309.122C204.309 309.907 197.054 311.295 189.895 313.317C179.82 316.154 168.63 321.827 165.43 334.291C161.684 348.957 171.025 363.201 178.919 374.85C218.106 432.671 260.185 485.513 315.635 518.498C319.759 520.943 324.074 523.176 328.626 523.538C330.925 523.719 333.438 523.327 335.121 521.305C337.065 518.951 337.326 515.088 336.97 511.678C334.386 486.539 314.331 466.471 300.059 448.515Z" stroke="white" stroke-width="2" stroke-miterlimit="10"/>
</g>
</g>
</svg>
